<svg width="24" height="24" viewBox="0 0 24 24" fill="none" xmlns="http://www.w3.org/2000/svg">
<rect width="24" height="24" rx="12" fill="#23B3E8"/>
<path d="M6.97909 9.36H9.44309C10.0458 9.36 10.5151 9.512 10.8511 9.816C11.1871 10.1147 11.3551 10.536 11.3551 11.08C11.3551 11.624 11.1871 12.048 10.8511 12.352C10.5151 12.656 10.0458 12.808 9.44309 12.808H8.01109V15H6.97909V9.36ZM9.31509 12.016C10.0244 12.016 10.3791 11.7067 10.3791 11.088C10.3791 10.7733 10.2911 10.5413 10.1151 10.392C9.93909 10.2373 9.67243 10.16 9.31509 10.16H8.01109V12.016H9.31509ZM16.0523 9.36H17.0203V15H16.2443L13.2203 11.064V15H12.2603V9.36H13.0283L16.0523 13.288V9.36Z" fill="white"/>
</svg>
